<?xml version="1.0" standalone="no"?>
<!DOCTYPE svg PUBLIC "-//W3C//DTD SVG 20010904//EN"
 "http://www.w3.org/TR/2001/REC-SVG-20010904/DTD/svg10.dtd">
<svg version="1.0" xmlns="http://www.w3.org/2000/svg"
 width="1024.000000pt" height="1024.000000pt" viewBox="0 0 1024.000000 1024.000000"
 preserveAspectRatio="xMidYMid meet">
<metadata>
Created by potrace 1.11, written by Peter Selinger 2001-2013
</metadata>
<g transform="translate(0.000000,1024.000000) scale(0.100000,-0.100000)"
fill="#000000" stroke="none">
<path d="M0 5120 l0 -5120 5120 0 5120 0 0 5120 0 5120 -5120 0 -5120 0 0
-5120z m5617 4557 c525 -60 897 -176 1252 -392 270 -163 512 -397 669 -644
188 -298 274 -619 274 -1031 1 -617 -200 -1122 -614 -1547 -230 -236 -541
-435 -861 -549 -142 -51 -140 -63 13 -85 216 -32 417 -87 625 -174 360 -150
709 -431 911 -735 198 -296 298 -569 351 -950 21 -153 21 -521 -1 -685 -73
-567 -293 -1025 -674 -1403 -488 -484 -1078 -751 -1867 -843 -71 -9 -547 -13
-1632 -16 l-1533 -4 0 4541 0 4542 1473 -5 c1270 -3 1491 -6 1614 -20z"/>
<path d="M3700 7250 l0 -1420 603 0 c722 0 850 10 1130 81 390 99 728 326 910
612 126 196 193 388 222 637 39 325 -4 614 -126 854 -168 330 -538 547 -1054
620 -223 31 -351 36 -1012 36 l-673 0 0 -1420z"/>
<path d="M3700 3230 l0 -1580 804 0 c925 0 1040 7 1322 79 421 108 746 322
955 632 163 242 240 528 240 889 0 356 -67 608 -227 857 -224 348 -640 567
-1249 659 -247 37 -424 44 -1142 44 l-703 0 0 -1580z"/>
</g>
</svg>
